<?xml version="1.0" encoding="utf-8"?>
<!-- Generator: Adobe Illustrator 19.2.1, SVG Export Plug-In . SVG Version: 6.00 Build 0)  -->
<svg version="1.1" id="layer" xmlns="http://www.w3.org/2000/svg" xmlns:xlink="http://www.w3.org/1999/xlink" x="0px" y="0px"
	 viewBox="0 0 652 652" style="enable-background:new 0 0 652 652;" xml:space="preserve">
<style type="text/css">
	.st0{fill:#23365C;}
	.st1{fill:#C2C3C3;}
</style>
<polygon class="st0" points="70.9,297.7 68.2,297.7 68.2,272.3 62.6,272.3 62.6,269.6 76.5,269.6 76.5,272.3 70.9,272.3 "/>
<polygon class="st0" points="91.3,282.2 103,282.2 103,285 91.3,285 91.3,295 103,295 103,297.7 88.5,297.7 88.5,269.6 103,269.6 
	103,272.3 91.3,272.3 "/>
<g>
	<path class="st0" d="M139.5,276.9c-1.2-1.8-2.6-3-4.2-3.9c-1.5-0.8-3.3-1.2-5.3-1.2c-3.1,0-5.7,1.2-7.9,3.5
		c-2.2,2.3-3.3,5.1-3.3,8.3c0,3.4,1.1,6.3,3.3,8.6c2.2,2.3,4.8,3.5,8,3.5c1.9,0,3.7-0.4,5.2-1.2c1.6-0.8,2.9-2,4.1-3.6h3.2
		c-1.3,2.4-3,4.2-5.1,5.6c-2.1,1.3-4.5,2-7.2,2c-4.1,0-7.5-1.4-10.2-4.2c-2.7-2.8-4.1-6.3-4.1-10.6c0-2,0.4-3.8,1.1-5.6
		c0.7-1.8,1.8-3.4,3.2-4.8c1.3-1.3,2.8-2.4,4.5-3c1.6-0.7,3.4-1,5.4-1c2.8,0,5.3,0.7,7.5,2c2.2,1.4,4,3.3,5.2,5.8H139.5z"/>
</g>
<polygon class="st0" points="158.7,297.7 156,297.7 156,269.6 158.7,269.6 158.7,282.2 172,282.2 172,269.6 174.7,269.6 
	174.7,297.7 172,297.7 172,284.9 158.7,284.9 "/>
<polygon class="st0" points="207.6,294.4 207.2,269.6 210,269.6 210,297.7 206.7,297.7 191.4,272.9 191.7,297.7 189,297.7 
	189,269.6 192.3,269.6 "/>
<rect x="224.3" y="269.6" class="st0" width="2.7" height="28.1"/>
<g>
	<path class="st0" d="M240,289.7h2.6c0.1,1.7,0.5,3.1,1.5,4.2c0.9,1,2.1,1.5,3.6,1.5c1.6,0,2.9-0.5,3.9-1.5c0.9-1,1.4-2.4,1.4-4.2
		c0-2.6-1.9-4.5-5.8-5.8c-0.3-0.1-0.5-0.2-0.7-0.2c-2-0.7-3.5-1.6-4.4-2.7c-0.9-1.1-1.3-2.5-1.3-4.3c0-2.2,0.7-4.1,2.1-5.5
		c1.4-1.4,3.2-2.1,5.4-2.1c2.1,0,3.7,0.7,5,2c1.2,1.3,1.9,3.1,2,5.5h-2.6c-0.1-1.5-0.6-2.7-1.4-3.5c-0.8-0.8-1.8-1.2-3.1-1.2
		c-1.4,0-2.5,0.5-3.4,1.4c-0.9,0.9-1.3,2.1-1.3,3.5c0,0.7,0.1,1.4,0.4,1.9c0.3,0.5,0.7,1,1.3,1.5c0.6,0.4,1.7,0.9,3.4,1.5
		c1,0.3,1.7,0.6,2.2,0.8c1.8,0.7,3.1,1.6,3.9,2.7c0.8,1.1,1.2,2.5,1.2,4.3c0,2.7-0.7,4.9-2.2,6.6c-1.5,1.7-3.4,2.5-5.9,2.5
		c-2.3,0-4.1-0.8-5.5-2.4C240.7,294.3,240,292.3,240,289.7"/>
	<path class="st0" d="M291,276.9c-1.2-1.8-2.6-3-4.2-3.9c-1.5-0.8-3.3-1.2-5.3-1.2c-3.1,0-5.7,1.2-7.9,3.5c-2.2,2.3-3.3,5.1-3.3,8.3
		c0,3.4,1.1,6.3,3.3,8.6c2.2,2.3,4.8,3.5,8,3.5c1.9,0,3.7-0.4,5.2-1.2c1.6-0.8,2.9-2,4.1-3.6h3.2c-1.3,2.4-3,4.2-5.1,5.6
		c-2.1,1.3-4.5,2-7.2,2c-4.1,0-7.5-1.4-10.2-4.2c-2.7-2.8-4.1-6.3-4.1-10.6c0-2,0.4-3.8,1.1-5.6c0.7-1.8,1.8-3.4,3.2-4.8
		c1.3-1.3,2.8-2.4,4.5-3c1.6-0.7,3.4-1,5.4-1c2.8,0,5.3,0.7,7.5,2c2.2,1.4,4,3.3,5.2,5.8H291z"/>
</g>
<polygon class="st0" points="310.2,297.7 307.5,297.7 307.5,269.6 310.2,269.6 310.2,282.2 323.4,282.2 323.4,269.6 326.2,269.6 
	326.2,297.7 323.4,297.7 323.4,284.9 310.2,284.9 "/>
<polygon class="st0" points="343.3,282.2 355,282.2 355,285 343.3,285 343.3,295 355,295 355,297.7 340.6,297.7 340.6,269.6 
	355,269.6 355,272.3 343.3,272.3 "/>
<rect x="60.1" y="269.6" class="st0" width="18.7" height="2.8"/>
<rect x="450.1" y="283.5" class="st1" width="30" height="90.5"/>
<rect x="385.6" y="283.5" class="st1" width="30" height="90.9"/>
<rect x="516.4" y="269" class="st0" width="7.8" height="105.4"/>
<rect x="531.8" y="269.1" class="st1" width="30" height="105.3"/>
<rect x="20.1" y="268.9" class="st1" width="30" height="105.3"/>
<g>
	<path class="st0" d="M567.7,269c26,0,52.4,21.9,52.4,52.6c0,30.6-26.4,52.6-52.3,52.6l-0.1-8.2c21.7,0,44.1-17.8,44.1-44.5
		c0-26.1-22.2-44.3-44.1-44.3V269z"/>
</g>
<rect x="371" y="269" class="st0" width="109.2" height="7.9"/>
<rect x="421.7" y="276.9" class="st0" width="7.8" height="97.2"/>
<rect x="486.6" y="317.6" class="st0" width="29.8" height="7.9"/>
<polygon class="st0" points="63,334.9 60.2,334.9 60.2,306.8 63,306.8 63,319.4 76.2,319.4 76.2,306.8 78.9,306.8 78.9,334.9 
	76.2,334.9 76.2,322.1 63,322.1 "/>
<g>
	<path class="st0" d="M92.6,320.7c0,3.4,1.1,6.3,3.3,8.6c2.2,2.3,4.9,3.5,8.2,3.5c3.2,0,5.8-1.2,8-3.5c2.2-2.3,3.3-5.2,3.3-8.7
		c0-3.2-1.1-6-3.4-8.3c-2.2-2.3-4.9-3.5-8.1-3.5c-1.3,0-2.5,0.2-3.7,0.7c-1.2,0.4-2.3,1.1-3.3,2c-1.3,1.1-2.4,2.5-3.1,4.2
		C92.9,317.3,92.6,319,92.6,320.7 M89.7,320.7c0-2,0.4-3.8,1.1-5.6c0.7-1.8,1.8-3.4,3.2-4.8c1.4-1.4,2.9-2.4,4.5-3.1
		c1.6-0.7,3.4-1,5.3-1c1.9,0,3.8,0.3,5.4,1c1.7,0.7,3.2,1.7,4.6,3.1c1.4,1.4,2.5,3,3.2,4.7c0.7,1.7,1.1,3.6,1.1,5.6
		c0,2-0.3,3.8-0.9,5.5c-0.6,1.7-1.5,3.2-2.8,4.6c-1.4,1.6-3,2.8-4.8,3.6c-1.8,0.8-3.7,1.2-5.8,1.2c-4,0-7.4-1.4-10.1-4.3
		C91.1,328.4,89.7,324.9,89.7,320.7"/>
	<path class="st0" d="M151.1,314.1c-1.2-1.8-2.6-3-4.2-3.9c-1.5-0.8-3.3-1.2-5.3-1.2c-3.1,0-5.7,1.2-7.9,3.5
		c-2.2,2.3-3.3,5.1-3.3,8.3c0,3.4,1.1,6.3,3.3,8.6c2.2,2.3,4.8,3.5,8,3.5c1.9,0,3.7-0.4,5.2-1.2c1.6-0.8,2.9-2,4.1-3.6h3.2
		c-1.3,2.4-3,4.3-5.1,5.6c-2.1,1.3-4.5,2-7.2,2c-4.1,0-7.5-1.4-10.2-4.2c-2.7-2.8-4.1-6.3-4.1-10.6c0-2,0.4-3.8,1.1-5.6
		c0.7-1.8,1.8-3.4,3.2-4.8c1.3-1.3,2.8-2.4,4.5-3c1.6-0.7,3.4-1,5.4-1c2.8,0,5.3,0.7,7.5,2c2.2,1.4,4,3.3,5.2,5.8H151.1z"/>
</g>
<polygon class="st0" points="168,334.9 165.3,334.9 165.3,306.8 168,306.8 168,319.4 181.2,319.4 181.2,306.8 184,306.8 184,334.9 
	181.2,334.9 181.2,322.1 168,322.1 "/>
<g>
	<path class="st0" d="M194.7,326.9h2.6c0.1,1.7,0.5,3.1,1.5,4.2c0.9,1,2.1,1.5,3.6,1.5c1.6,0,2.9-0.5,3.9-1.5c0.9-1,1.4-2.4,1.4-4.2
		c0-2.6-1.9-4.5-5.8-5.8c-0.3-0.1-0.5-0.2-0.7-0.2c-2-0.7-3.5-1.6-4.4-2.7c-0.9-1.1-1.3-2.5-1.3-4.3c0-2.2,0.7-4.1,2.1-5.5
		c1.4-1.4,3.2-2.1,5.4-2.1c2.1,0,3.7,0.7,5,2c1.2,1.3,1.9,3.1,2,5.5h-2.6c-0.1-1.5-0.6-2.7-1.4-3.5c-0.8-0.8-1.8-1.2-3.1-1.2
		c-1.4,0-2.5,0.5-3.4,1.4c-0.9,0.9-1.3,2.1-1.3,3.5c0,0.7,0.1,1.4,0.4,1.9c0.3,0.5,0.7,1,1.3,1.5c0.6,0.4,1.7,0.9,3.4,1.5
		c1,0.3,1.7,0.6,2.2,0.8c1.8,0.7,3.1,1.6,3.9,2.7c0.8,1.1,1.2,2.5,1.2,4.3c0,2.7-0.7,4.9-2.2,6.6c-1.5,1.7-3.4,2.5-5.9,2.5
		c-2.3,0-4.1-0.8-5.5-2.4C195.4,331.5,194.7,329.5,194.7,326.9"/>
	<path class="st0" d="M243.5,314.1c-1.2-1.8-2.6-3-4.2-3.9c-1.5-0.8-3.3-1.2-5.3-1.2c-3.1,0-5.7,1.2-7.9,3.5
		c-2.2,2.3-3.3,5.1-3.3,8.3c0,3.4,1.1,6.3,3.3,8.6c2.2,2.3,4.8,3.5,8,3.5c1.9,0,3.7-0.4,5.2-1.2c1.6-0.8,2.9-2,4.1-3.6h3.2
		c-1.3,2.4-3,4.3-5.1,5.6c-2.1,1.3-4.5,2-7.2,2c-4.1,0-7.5-1.4-10.2-4.2c-2.7-2.8-4.1-6.3-4.1-10.6c0-2,0.4-3.8,1.1-5.6
		c0.7-1.8,1.8-3.4,3.2-4.8c1.3-1.3,2.8-2.4,4.5-3c1.6-0.7,3.4-1,5.4-1c2.8,0,5.3,0.7,7.5,2c2.2,1.4,4,3.3,5.2,5.8H243.5z"/>
</g>
<polygon class="st0" points="260.4,334.9 257.7,334.9 257.7,306.8 260.4,306.8 260.4,319.4 273.7,319.4 273.7,306.8 276.4,306.8 
	276.4,334.9 273.7,334.9 273.7,322.1 260.4,322.1 "/>
<g>
	<path class="st0" d="M288.1,306.8h2.7v17.8c0,1.4,0.1,2.4,0.2,3.1c0.1,0.7,0.3,1.3,0.5,1.8c0.5,1.1,1.2,1.9,2.2,2.5
		c1,0.6,2,0.9,3.3,0.9c2.1,0,3.7-0.7,4.7-2.2c1-1.4,1.5-3.7,1.5-6.7v-17.2h2.7v17.9c0,3.6-0.7,6.4-2.1,8.2c-1.4,1.8-3.6,2.7-6.5,2.7
		c-3.1,0-5.4-0.9-6.9-2.6c-1.5-1.8-2.2-4.5-2.2-8.2V306.8z"/>
</g>
<polygon class="st0" points="330.2,334.9 317.6,334.9 317.6,306.8 320.4,306.8 320.4,332.2 330.2,332.2 "/>
<polygon class="st0" points="343.5,319.4 355.2,319.4 355.2,322.2 343.5,322.2 343.5,332.2 355.2,332.2 355.2,334.9 340.7,334.9 
	340.7,306.8 355.2,306.8 355.2,309.5 343.5,309.5 "/>
<g>
	<path class="st0" d="M62.6,348.1v22.8h5.7c3.5,0,6.3-1,8.2-3c1.9-2,2.9-4.9,2.9-8.5c0-1.8-0.3-3.5-1-5.1c-0.7-1.6-1.6-2.9-2.8-3.9
		c-0.9-0.8-1.9-1.4-3-1.7c-1.1-0.3-2.8-0.5-4.9-0.5H62.6z M59.9,345.4h7.9c2.2,0,4,0.2,5.5,0.7c1.5,0.4,2.8,1.1,3.9,2.1
		c1.6,1.4,2.8,3,3.7,5c0.9,2,1.3,4.1,1.3,6.3c0,2.5-0.5,4.8-1.5,6.8c-1,2-2.3,3.7-4.1,5c-1.2,0.8-2.4,1.4-3.8,1.8
		c-1.4,0.4-3.5,0.5-6.3,0.5h-6.7V345.4z"/>
</g>
<polygon class="st0" points="94.3,358.1 106,358.1 106,360.8 94.3,360.8 94.3,370.9 106,370.9 106,373.6 91.6,373.6 91.6,345.4 
	106,345.4 106,348.2 94.3,348.2 "/>
<g>
	<path class="st0" d="M126.4,360.1h17.3c-0.2,4.1-1.7,7.5-4.4,10.1c-2.7,2.6-6,4-9.9,4c-4,0-7.4-1.4-10.1-4.3
		c-2.7-2.8-4.1-6.4-4.1-10.6c0-2,0.4-3.8,1.1-5.6c0.7-1.8,1.8-3.4,3.2-4.8c1.4-1.4,2.9-2.4,4.6-3.1c1.7-0.7,3.5-1,5.6-1
		c2.7,0,5.1,0.7,7.3,2c2.1,1.3,3.9,3.2,5.2,5.7h-3.4c-1.3-1.7-2.7-2.9-4.2-3.7c-1.5-0.8-3.2-1.2-5-1.2c-3.2,0-5.9,1.2-8.1,3.5
		c-2.2,2.3-3.3,5.1-3.3,8.3c0,3.5,1.1,6.3,3.3,8.6c2.2,2.3,4.9,3.5,8.2,3.5c2.5,0,4.8-0.8,6.9-2.5c2-1.6,3.3-3.8,3.9-6.4h-14V360.1z
		"/>
	<path class="st0" d="M162.7,360.1H180c-0.2,4.1-1.7,7.5-4.4,10.1c-2.7,2.6-6,4-9.9,4c-4,0-7.4-1.4-10.1-4.3
		c-2.7-2.8-4.1-6.4-4.1-10.6c0-2,0.4-3.8,1.1-5.6c0.7-1.8,1.8-3.4,3.2-4.8c1.4-1.4,2.9-2.4,4.6-3.1c1.7-0.7,3.5-1,5.6-1
		c2.7,0,5.1,0.7,7.3,2c2.1,1.3,3.9,3.2,5.2,5.7h-3.4c-1.3-1.7-2.7-2.9-4.2-3.7c-1.5-0.8-3.2-1.2-5-1.2c-3.2,0-5.9,1.2-8.1,3.5
		c-2.2,2.3-3.3,5.1-3.3,8.3c0,3.5,1.1,6.3,3.3,8.6c2.2,2.3,4.9,3.5,8.2,3.5c2.5,0,4.8-0.8,6.9-2.5c2-1.6,3.3-3.8,3.9-6.4h-14V360.1z
		"/>
</g>
<polygon class="st0" points="192.1,358.1 203.8,358.1 203.8,360.8 192.1,360.8 192.1,370.9 203.8,370.9 203.8,373.6 189.4,373.6 
	189.4,345.4 203.8,345.4 203.8,348.2 192.1,348.2 "/>
<polygon class="st0" points="233,370.2 232.7,345.4 235.4,345.4 235.4,373.6 232.1,373.6 216.8,348.8 217.1,373.6 214.4,373.6 
	214.4,345.4 217.7,345.4 "/>
<g>
	<path class="st0" d="M248.8,348.1v22.8h5.7c3.5,0,6.3-1,8.2-3c1.9-2,2.9-4.9,2.9-8.5c0-1.8-0.3-3.5-1-5.1c-0.7-1.6-1.6-2.9-2.8-3.9
		c-0.9-0.8-1.9-1.4-3-1.7c-1.1-0.3-2.8-0.5-4.9-0.5H248.8z M246.1,345.4h7.9c2.2,0,4,0.2,5.5,0.7c1.5,0.4,2.8,1.1,3.9,2.1
		c1.6,1.4,2.8,3,3.7,5c0.9,2,1.3,4.1,1.3,6.3c0,2.5-0.5,4.8-1.5,6.8c-1,2-2.3,3.7-4.1,5c-1.2,0.8-2.4,1.4-3.8,1.8
		c-1.4,0.4-3.5,0.5-6.3,0.5h-6.7V345.4z"/>
	<path class="st0" d="M279.2,359.4c0,3.4,1.1,6.3,3.3,8.6c2.2,2.3,4.9,3.5,8.2,3.5c3.2,0,5.8-1.2,8-3.5c2.2-2.3,3.3-5.2,3.3-8.7
		c0-3.2-1.1-6-3.4-8.3c-2.2-2.3-4.9-3.5-8.1-3.5c-1.3,0-2.5,0.2-3.7,0.7c-1.2,0.4-2.3,1.1-3.3,2c-1.3,1.1-2.4,2.5-3.1,4.2
		C279.6,356,279.2,357.7,279.2,359.4 M276.3,359.3c0-2,0.4-3.8,1.1-5.6c0.7-1.8,1.8-3.4,3.2-4.8c1.4-1.4,2.9-2.4,4.5-3.1
		c1.6-0.7,3.4-1,5.3-1c1.9,0,3.8,0.3,5.4,1c1.7,0.7,3.2,1.7,4.6,3.1c1.4,1.4,2.5,3,3.2,4.7c0.7,1.7,1.1,3.6,1.1,5.6
		c0,2-0.3,3.8-0.9,5.5c-0.6,1.7-1.5,3.2-2.8,4.6c-1.4,1.6-3,2.8-4.8,3.6c-1.8,0.8-3.7,1.2-5.8,1.2c-4,0-7.4-1.4-10.1-4.3
		C277.7,367,276.3,363.5,276.3,359.3"/>
	<path class="st0" d="M316.4,348.2v25.4h-2.7v-28.1h7.5c1.6,0,3,0.1,4,0.4c1,0.3,1.9,0.7,2.7,1.2c1.1,0.8,2,1.8,2.6,3.2
		c0.6,1.3,1,2.7,1,4.2c0,2.2-0.6,4.1-1.9,5.6c-1.3,1.6-2.9,2.4-4.8,2.6l6.7,11h-3.2l-8.3-13.6h2.6c1.8,0,3.2-0.5,4.3-1.6
		c1.1-1,1.7-2.4,1.7-4c0-1-0.2-1.9-0.5-2.7c-0.3-0.8-0.8-1.5-1.5-2.1c-0.5-0.5-1.2-0.9-2-1.1c-0.8-0.2-2.1-0.3-4.1-0.3H316.4z"/>
</g>
<polygon class="st0" points="341.4,373.6 341.4,345.4 355.1,345.4 355.1,348.2 344.1,348.2 344.1,358.1 355.1,358.1 355.1,360.8 
	344.1,360.8 344.1,373.6 "/>
</svg>
